<svg width="18" height="18" viewBox="0 0 18 18" fill="none" xmlns="http://www.w3.org/2000/svg">
<path d="M12.4731 9.84825C12.4307 9.89175 12.2707 10.0777 12.1217 10.2307C11.2478 11.193 8.96822 12.768 7.77509 13.2487C7.59389 13.326 7.13578 13.4895 6.89101 13.5C6.65648 13.5 6.4329 13.446 6.21956 13.3365C5.9536 13.1835 5.74026 12.9428 5.62336 12.6585C5.5481 12.4612 5.4312 11.871 5.4312 11.8605C5.3143 11.2147 5.25 10.1655 5.25 9.006C5.25 7.90125 5.3143 6.89475 5.41001 6.23925C5.42097 6.22875 5.53787 5.49525 5.66573 5.244C5.90027 4.785 6.35838 4.5 6.84864 4.5L6.89101 4.5C7.2103 4.51125 7.88176 4.79625 7.88176 4.80675C9.01059 5.28825 11.2376 6.786 12.1326 7.78125C12.1326 7.78125 12.3847 8.037 12.4943 8.19675C12.6652 8.42625 12.75 8.7105 12.75 8.99475C12.75 9.312 12.6543 9.6075 12.4731 9.84825" fill="white"/>
</svg>
