<svg width="10" height="10" viewBox="0 0 10 10" fill="none" xmlns="http://www.w3.org/2000/svg">
<path d="M5.47125 6.92884C5.49542 6.9053 5.59875 6.8164 5.68375 6.7336C6.21833 6.24813 7.09333 4.98169 7.36042 4.31884C7.40333 4.21817 7.49417 3.96367 7.5 3.82769C7.5 3.69739 7.47 3.57318 7.40917 3.45466C7.32417 3.30691 7.19042 3.18838 7.0325 3.12344C6.92292 3.08163 6.595 3.01668 6.58917 3.01668C6.23042 2.95174 5.6475 2.91602 5.00333 2.91602C4.38958 2.91602 3.83042 2.95174 3.46625 3.00491C3.46042 3.011 3.05292 3.07594 2.91333 3.14698C2.65833 3.27728 2.5 3.53178 2.5 3.80415L2.5 3.82769C2.50625 4.00507 2.66458 4.3781 2.67042 4.3781C2.93792 5.00523 3.77 6.24245 4.32292 6.73969C4.32292 6.73969 4.465 6.87973 4.55375 6.94061C4.68125 7.0356 4.83917 7.08268 4.99708 7.08268C5.17333 7.08268 5.3375 7.02951 5.47125 6.92884Z" fill="#1C1F22" fill-opacity="0.5"/>
</svg>
