<svg width="18" height="19" viewBox="0 0 18 19" fill="none" xmlns="http://www.w3.org/2000/svg">
<path d="M12.4731 9.93714C12.4307 9.9808 12.2707 10.1675 12.1217 10.3211C11.2478 11.2869 8.96822 12.8678 7.77509 13.3503C7.59389 13.4279 7.13578 13.592 6.89101 13.6025C6.65648 13.6025 6.4329 13.5483 6.21956 13.4384C5.9536 13.2849 5.74026 13.0432 5.62336 12.7579C5.5481 12.5599 5.4312 11.9674 5.4312 11.9569C5.3143 11.3087 5.25 10.2556 5.25 9.09174C5.25 7.98286 5.3143 6.9726 5.41001 6.31465C5.42097 6.30411 5.53787 5.56787 5.66573 5.31568C5.90027 4.85496 6.35838 4.5689 6.84864 4.5689L6.89101 4.5689C7.2103 4.58019 7.88176 4.86625 7.88176 4.87679C9.01059 5.36009 11.2376 6.86344 12.1326 7.86241C12.1326 7.86241 12.3847 8.11912 12.4943 8.27946C12.6652 8.50982 12.75 8.79513 12.75 9.08045C12.75 9.39888 12.6543 9.69549 12.4731 9.93714Z" fill="#8168F0"/>
</svg>
