<svg width="14" height="14" viewBox="0 0 14 14" fill="none" xmlns="http://www.w3.org/2000/svg">
<path d="M6.34025 9.70097C6.30642 9.66801 6.16175 9.54355 6.04275 9.42763C5.29433 8.74797 4.06933 6.97495 3.69542 6.04696C3.63533 5.90603 3.50817 5.54972 3.5 5.35935C3.5 5.17694 3.542 5.00304 3.62717 4.83711C3.74617 4.63026 3.93342 4.46432 4.1545 4.3734C4.30792 4.31486 4.767 4.22394 4.77517 4.22394C5.27742 4.13302 6.0935 4.08301 6.99533 4.08301C7.85458 4.08301 8.63742 4.13302 9.14725 4.20746C9.15542 4.21598 9.72592 4.30691 9.92133 4.40636C10.2783 4.58877 10.5 4.94508 10.5 5.32639V5.35935C10.4912 5.60769 10.2696 6.12993 10.2614 6.12993C9.88692 7.00791 8.722 8.74001 7.94792 9.43615C7.94792 9.43615 7.749 9.6322 7.62475 9.71745C7.44625 9.85042 7.22517 9.91634 7.00408 9.91634C6.75733 9.91634 6.5275 9.8419 6.34025 9.70097Z" fill="#8168F0"/>
</svg>
