<svg width="18" height="18" viewBox="0 0 18 18" fill="none" xmlns="http://www.w3.org/2000/svg">
<path d="M5.52691 9.84825C5.56929 9.89175 5.7293 10.0777 5.87835 10.2307C6.75219 11.193 9.03178 12.768 10.2249 13.2487C10.4061 13.326 10.8642 13.4895 11.109 13.5C11.3435 13.5 11.5671 13.446 11.7804 13.3365C12.0464 13.1835 12.2597 12.9428 12.3766 12.6585C12.4519 12.4612 12.5688 11.871 12.5688 11.8605C12.6857 11.2147 12.75 10.1655 12.75 9.006C12.75 7.90125 12.6857 6.89475 12.59 6.23925C12.579 6.22875 12.4621 5.49525 12.3343 5.244C12.0997 4.785 11.6416 4.5 11.1514 4.5L11.109 4.5C10.7897 4.51125 10.1182 4.79625 10.1182 4.80675C8.98941 5.28825 6.76242 6.786 5.86739 7.78125C5.86739 7.78125 5.61532 8.037 5.50572 8.19675C5.33475 8.42625 5.25 8.7105 5.25 8.99475C5.25 9.312 5.34571 9.6075 5.52691 9.84825" fill="white"/>
</svg>
