<svg width="26" height="26" viewBox="0 0 26 26" fill="none" xmlns="http://www.w3.org/2000/svg">
<path d="M7.6468 23.3889L8.04349 22.4709L7.6468 23.3889ZM3.94862 16.9825L2.97082 17.1921L3.94862 16.9825ZM5.38391 21.5595L6.19837 20.9793L5.38391 21.5595ZM22.0513 16.9825L21.0735 16.773L22.0513 16.9825ZM20.616 21.5595L19.8016 20.9793L20.616 21.5595ZM18.3531 23.3889L17.9564 22.4709L18.3531 23.3889ZM21.4689 9.12004L21.9783 8.25955L21.4689 9.12004ZM22.4855 14.9562L23.4633 15.1657V15.1657L22.4855 14.9562ZM22.8945 10.8836L23.8427 10.5657L22.8945 10.8836ZM4.53107 9.12004L4.0216 8.25955L4.53107 9.12004ZM3.5144 14.9562L4.4922 14.7467L3.5144 14.9562ZM3.1054 10.8836L2.15726 10.5657L3.1054 10.8836ZM16.3338 8.66663C16.3338 9.21891 16.7815 9.66663 17.3338 9.66663C17.8861 9.66663 18.3338 9.21891 18.3338 8.66663H16.3338ZM7.66716 8.66662C7.66716 9.21891 8.11488 9.66662 8.66716 9.66662C9.21945 9.66662 9.66716 9.21891 9.66716 8.66662H7.66716ZM8.59897 9.66663H17.401V7.66663H8.59897V9.66663ZM21.5077 14.7466L21.0735 16.773L23.0291 17.1921L23.4633 15.1657L21.5077 14.7466ZM13.577 22.8333H12.4229V24.8333H13.577V22.8333ZM4.92642 16.773L4.4922 14.7467L2.53659 15.1657L2.97082 17.1921L4.92642 16.773ZM12.4229 22.8333C11.1591 22.8333 10.2651 22.8327 9.55715 22.7804C8.86182 22.7292 8.41537 22.6316 8.04349 22.4709L7.25011 24.3068C7.90665 24.5905 8.59902 24.7152 9.41003 24.775C10.2085 24.8339 11.1883 24.8333 12.4229 24.8333V22.8333ZM2.97082 17.1921C3.22951 18.3993 3.43419 19.3575 3.65907 20.1259C3.88749 20.9063 4.15447 21.5572 4.56946 22.1397L6.19837 20.9793C5.96331 20.6493 5.77439 20.2332 5.57855 19.5641C5.37917 18.8828 5.19123 18.0088 4.92642 16.773L2.97082 17.1921ZM8.04349 22.4709C7.30391 22.1513 6.66585 21.6355 6.19837 20.9793L4.56946 22.1397C5.24862 23.0931 6.17563 23.8425 7.25011 24.3068L8.04349 22.4709ZM21.0735 16.773C20.8087 18.0088 20.6208 18.8828 20.4214 19.5641C20.2255 20.2332 20.0366 20.6493 19.8016 20.9793L21.4305 22.1397C21.8455 21.5572 22.1124 20.9063 22.3409 20.1259C22.5657 19.3575 22.7704 18.3993 23.0291 17.1921L21.0735 16.773ZM13.577 24.8333C14.8117 24.8333 15.7915 24.8339 16.5899 24.775C17.4009 24.7152 18.0933 24.5905 18.7498 24.3068L17.9564 22.4709C17.5846 22.6316 17.1381 22.7292 16.4428 22.7804C15.7349 22.8327 14.8409 22.8333 13.577 22.8333V24.8333ZM19.8016 20.9793C19.3341 21.6355 18.696 22.1513 17.9564 22.4709L18.7498 24.3068C19.8243 23.8425 20.7513 23.0931 21.4305 22.1397L19.8016 20.9793ZM17.401 9.66663C18.5198 9.66663 19.2937 9.66753 19.8859 9.71948C20.4697 9.77069 20.7636 9.86462 20.9594 9.98053L21.9783 8.25955C21.4083 7.92204 20.769 7.78926 20.0606 7.72713C19.3607 7.66572 18.4835 7.66663 17.401 7.66663V9.66663ZM23.4633 15.1657C23.6902 14.1072 23.8748 13.2497 23.9615 12.5524C24.0491 11.8468 24.0532 11.1938 23.8427 10.5657L21.9464 11.2014C22.0187 11.4171 22.049 11.7242 21.9767 12.3058C21.9034 12.8957 21.7422 13.6527 21.5077 14.7466L23.4633 15.1657ZM20.9594 9.98053C21.4243 10.2558 21.7747 10.6892 21.9464 11.2014L23.8427 10.5657C23.5183 9.59808 22.8565 8.77949 21.9783 8.25955L20.9594 9.98053ZM8.59897 7.66663C7.5164 7.66663 6.63928 7.66572 5.93929 7.72713C5.23098 7.78926 4.59164 7.92204 4.0216 8.25955L5.04054 9.98053C5.23631 9.86462 5.53022 9.77069 6.11406 9.71948C6.70622 9.66753 7.48015 9.66663 8.59897 9.66663V7.66663ZM4.4922 14.7467C4.25777 13.6527 4.0965 12.8957 4.02322 12.3058C3.95096 11.7242 3.98122 11.4171 4.05354 11.2014L2.15726 10.5657C1.94669 11.1938 1.95082 11.8468 2.03847 12.5524C2.1251 13.2497 2.30976 14.1072 2.53659 15.1657L4.4922 14.7467ZM4.0216 8.25955C3.14342 8.77949 2.48166 9.59808 2.15726 10.5657L4.05354 11.2014C4.22528 10.6892 4.57562 10.2558 5.04054 9.98053L4.0216 8.25955ZM16.3338 5.88091V8.66663H18.3338V5.88091H16.3338ZM9.66716 8.66662V5.88091H7.66716V8.66662H9.66716ZM9.66716 5.88091C9.66716 4.52092 11.0094 3.16663 13.0005 3.16663V1.16663C10.2052 1.16663 7.66716 3.13822 7.66716 5.88091H9.66716ZM18.3338 5.88091C18.3338 3.13822 15.7958 1.16663 13.0005 1.16663V3.16663C14.9916 3.16663 16.3338 4.52092 16.3338 5.88091H18.3338Z" fill="#1C1F22"/>
</svg>
