<svg width="24" height="24" viewBox="0 0 24 24" fill="none" xmlns="http://www.w3.org/2000/svg">
<path d="M3 19.4565C3 21.1304 4.32245 22.5 5.93878 22.5H18.0612C19.6776 22.5 21 21.0543 21 19.3804V4.82228C21 3.84728 19.8075 3.39728 19.1366 4.07228L15.7302 7.5H8.37128L4.875 4.07228C4.2 3.39728 3 3.84728 3 4.82228V19.4565Z" fill="#FFB02E"/>
<path d="M6.75004 8.19486L4.65004 10.1449C4.27504 10.5199 3.60004 10.2199 3.60004 9.69486V5.79486C3.60004 5.34486 4.27504 5.04486 4.65004 5.41986L6.75004 7.36986C6.97504 7.59486 6.97504 7.96986 6.75004 8.19486Z" fill="#FF822D"/>
<path d="M17.2875 8.19486L19.3875 10.1449C19.7625 10.5199 20.4375 10.2199 20.4375 9.69486V5.79486C20.4375 5.34486 19.7625 5.04486 19.3875 5.41986L17.2875 7.36986C17.0625 7.59486 17.0625 7.96986 17.2875 8.19486Z" fill="#FF822D"/>
<path d="M12.7822 15H11.2178C10.8837 15 10.7164 15.4039 10.9527 15.6402L11.7348 16.4223C11.8813 16.5688 12.1187 16.5688 12.2652 16.4223L13.0473 15.6402C13.2836 15.4039 13.1163 15 12.7822 15Z" fill="#F70A8D"/>
<path d="M2.04279 15.0395C1.85755 14.9469 1.63229 15.022 1.53967 15.2073C1.44705 15.3925 1.52214 15.6177 1.70738 15.7104L4.70738 17.2104C4.89262 17.303 5.11787 17.2279 5.21049 17.0427C5.30311 16.8574 5.22803 16.6322 5.04279 16.5395L2.04279 15.0395Z" fill="#FF6723"/>
<path d="M2.04279 20.2104C1.85755 20.303 1.63229 20.2279 1.53967 20.0427C1.44705 19.8574 1.52214 19.6322 1.70738 19.5395L4.70738 18.0395C4.89262 17.9469 5.11787 18.022 5.21049 18.2073C5.30311 18.3925 5.22803 18.6177 5.04279 18.7104L2.04279 20.2104Z" fill="#FF6723"/>
<path d="M22.4605 15.2073C22.3679 15.022 22.1426 14.9469 21.9574 15.0395L18.9574 16.5395C18.7721 16.6322 18.6971 16.8574 18.7897 17.0427C18.8823 17.2279 19.1075 17.303 19.2928 17.2104L22.2928 15.7104C22.478 15.6177 22.5531 15.3925 22.4605 15.2073Z" fill="#FF6723"/>
<path d="M21.9574 20.2104C22.1426 20.303 22.3679 20.2279 22.4605 20.0427C22.5531 19.8574 22.478 19.6322 22.2928 19.5395L19.2928 18.0395C19.1075 17.9469 18.8823 18.022 18.7897 18.2073C18.6971 18.3925 18.7721 18.6177 18.9574 18.7104L21.9574 20.2104Z" fill="#FF6723"/>
<path d="M9 12.75C8.58579 12.75 8.25 13.0858 8.25 13.5V14.25C8.25 14.6642 8.58579 15 9 15C9.41421 15 9.75 14.6642 9.75 14.25V13.5C9.75 13.0858 9.41421 12.75 9 12.75Z" fill="#402A32"/>
<path d="M15 12.75C14.5858 12.75 14.25 13.0858 14.25 13.5V14.25C14.25 14.6642 14.5858 15 15 15C15.4142 15 15.75 14.6642 15.75 14.25V13.5C15.75 13.0858 15.4142 12.75 15 12.75Z" fill="#402A32"/>
<path d="M11.9999 17.3295C11.5968 17.7336 10.9075 18 10.1249 18C9.35106 18 8.66844 17.7396 8.26355 17.343C8.35378 17.8861 8.95954 20.625 11.9999 20.625C15.0403 20.625 15.6461 17.8861 15.7363 17.343C15.3314 17.7396 14.6488 18 13.8749 18C13.0923 18 12.403 17.7336 11.9999 17.3295Z" fill="#BB1D80"/>
</svg>
