<svg width="24" height="24" viewBox="0 0 24 24" fill="none" xmlns="http://www.w3.org/2000/svg">
<path d="M3 6.75C3 5.09315 4.34315 3.75 6 3.75H18C19.6569 3.75 21 5.09315 21 6.75V17.25C21 18.9069 19.6569 20.25 18 20.25H6C4.34315 20.25 3 18.9069 3 17.25V6.75Z" fill="#F3C07B"/>
<path d="M18.0469 16.3828C18.0469 13.0266 14.8125 11.9766 12.0469 11.9766C8.95312 11.9766 6 13.1484 6 16.3828C6 19.3453 9.23438 21.8906 12.0469 21.8906C15.4219 21.8906 18.0469 18.3984 18.0469 16.3828Z" fill="#FFDEA7"/>
<path d="M9.74414 18.4922L12 16.8047L14.2559 18.4922V20.25C14.2559 21.4926 13.2426 22.5 12 22.5C10.7574 22.5 9.74414 21.4926 9.74414 20.25V18.4922Z" fill="#CA0B4A"/>
<path d="M8.79445 4.55009L3.31944 12.2713C2.79093 13.0166 1.61719 12.6427 1.61719 11.729V6.44531C1.61719 4.58135 3.12823 3.07031 4.99219 3.07031H8.0297C8.79076 3.07031 9.23467 3.92927 8.79445 4.55009Z" fill="#6D4534"/>
<path d="M15.1821 4.55009L20.6571 12.2713C21.1856 13.0166 22.3594 12.6427 22.3594 11.729V6.44531C22.3594 4.58135 20.8483 3.07031 18.9844 3.07031H15.9469C15.1858 3.07031 14.7419 3.92927 15.1821 4.55009Z" fill="#6D4534"/>
<path d="M9 9.75C9 9.33579 9.33579 9 9.75 9C10.1642 9 10.5 9.33579 10.5 9.75V10.5C10.5 10.9142 10.1642 11.25 9.75 11.25C9.33579 11.25 9 10.9142 9 10.5V9.75Z" fill="#212121"/>
<path d="M13.5 9.75C13.5 9.33579 13.8358 9 14.25 9C14.6642 9 15 9.33579 15 9.75V10.5C15 10.9142 14.6642 11.25 14.25 11.25C13.8358 11.25 13.5 10.9142 13.5 10.5V9.75Z" fill="#212121"/>
<path d="M12.8585 12.75H11.1207C10.683 12.75 10.2756 13.362 10.6425 13.8546C10.8917 14.1891 11.5168 14.8582 12.0233 14.8582C12.5298 14.8582 13.1234 14.1891 13.3569 13.8546C13.761 13.2215 13.2177 12.759 12.8585 12.75Z" fill="#212121"/>
<path d="M12.375 15.3867C12.375 15.1796 12.2071 15.0117 12 15.0117L11.9957 15.0117L11.9914 15.0117C11.7843 15.0117 11.6164 15.1796 11.6164 15.3867C11.6164 15.4486 11.6177 15.5096 11.6203 15.5697C11.5334 17.2351 10.2656 17.9883 9.39844 17.9883C9.19133 17.9883 9.02344 18.1562 9.02344 18.3633C9.02344 18.5704 9.19133 18.7383 9.39844 18.7383C10.3066 18.7383 11.4227 18.1789 11.9957 17.0563C12.5688 18.1789 13.6848 18.7383 14.593 18.7383C14.8001 18.7383 14.968 18.5704 14.968 18.3633C14.968 18.1562 14.8001 17.9883 14.593 17.9883C13.7258 17.9883 12.458 17.2351 12.3712 15.5697C12.3737 15.5096 12.375 15.4486 12.375 15.3867Z" fill="#212121"/>
</svg>
