<svg width="16" height="16" viewBox="0 0 16 16" fill="none" xmlns="http://www.w3.org/2000/svg">
<path d="M9.99852 4.99649L8.93678 3.04984C8.63183 2.49072 8.47935 2.21116 8.27744 2.1189C8.10149 2.0385 7.89929 2.03849 7.72333 2.11888C7.52142 2.21113 7.36893 2.49068 7.06394 3.04979L6.002 4.99653C5.91949 5.1478 5.87824 5.22343 5.82178 5.28436C5.77173 5.33837 5.71309 5.38372 5.64822 5.41856C5.57504 5.45786 5.49146 5.47876 5.3243 5.52055L3.04219 6.09108C2.47794 6.23214 2.19581 6.30267 2.05761 6.46342C1.93698 6.60375 1.8801 6.7879 1.90058 6.97181C1.92404 7.18249 2.11725 7.39984 2.50366 7.83455L3.99549 9.51286C4.10651 9.63777 4.16203 9.70022 4.19971 9.77162C4.23312 9.83492 4.25611 9.90319 4.26781 9.9738C4.28101 10.0535 4.2746 10.1368 4.26177 10.3034L4.07689 12.705C4.02783 13.3422 4.0033 13.6608 4.12274 13.8483C4.22682 14.0118 4.39686 14.1218 4.58858 14.1499C4.8086 14.1821 5.08923 14.0293 5.6505 13.7236L7.48972 12.7222C7.67623 12.6206 7.76948 12.5698 7.86804 12.5499C7.95528 12.5323 8.04517 12.5323 8.1324 12.55C8.23095 12.57 8.32416 12.6208 8.51059 12.7225L10.3493 13.7255C10.9108 14.0317 11.1915 14.1848 11.4116 14.1527C11.6034 14.1248 11.7735 14.0147 11.8777 13.8513C11.9972 13.6637 11.9727 13.3449 11.9236 12.7072L11.7387 10.3034C11.7259 10.1367 11.7195 10.0534 11.7327 9.97379C11.7444 9.90319 11.7674 9.83492 11.8008 9.77163C11.8385 9.70023 11.894 9.63778 12.005 9.51289L13.4969 7.83455C13.8833 7.39984 14.0765 7.18249 14.0999 6.97181C14.1204 6.7879 14.0635 6.60375 13.9429 6.46342C13.8047 6.30267 13.5226 6.23214 12.9583 6.09108L10.6762 5.52056C10.5091 5.47877 10.4255 5.45787 10.3523 5.41856C10.2874 5.38371 10.2288 5.33836 10.1787 5.28435C10.1223 5.22341 10.081 5.14777 9.99852 4.99649Z" fill="#F98026"/>
</svg>
