<svg width="24" height="24" viewBox="0 0 24 24" fill="none" xmlns="http://www.w3.org/2000/svg">
<g clip-path="url(#clip0_457_8758)">
<path d="M12 16C9.79398 16 7.99998 14.206 7.99998 12C7.99998 9.794 9.79398 8 12 8C14.206 8 16 9.794 16 12C16 14.206 14.206 16 12 16ZM12 10C10.897 10 9.99998 10.897 9.99998 12C9.99998 13.103 10.897 14 12 14C13.103 14 14 13.103 14 12C14 10.897 13.103 10 12 10ZM4.99998 7C4.44798 7 3.99998 7.448 3.99998 8C3.99998 8.552 4.44798 9 4.99998 9C5.55198 9 5.99998 8.552 5.99998 8C5.99998 7.448 5.55198 7 4.99998 7ZM18 10C18 10.552 18.448 11 19 11C19.552 11 20 10.552 20 10C20 9.448 19.552 9 19 9C18.448 9 18 9.448 18 10ZM4.99998 13C4.44798 13 3.99998 13.448 3.99998 14C3.99998 14.552 4.44798 15 4.99998 15C5.55198 15 5.99998 14.552 5.99998 14C5.99998 13.448 5.55198 13 4.99998 13ZM18 16C18 16.552 18.448 17 19 17C19.552 17 20 16.552 20 16C20 15.448 19.552 15 19 15C18.448 15 18 15.448 18 16ZM16.999 21C15.365 21 13.901 20.601 12.486 20.215C11.138 19.847 9.86598 19.5 8.49998 19.5C6.92898 19.5 5.93798 19.601 5.08098 19.849C3.87498 20.196 2.60698 19.962 1.60098 19.205C0.583977 18.44 0.000976562 17.272 0.000976562 16V8.452C0.000976562 6.389 1.29998 4.508 3.23398 3.771C4.57498 3.259 5.84298 3 7.00198 3C8.63598 3 10.099 3.399 11.515 3.785C12.863 4.153 14.135 4.5 15.501 4.5C17.071 4.5 18.063 4.399 18.92 4.151C20.128 3.804 21.396 4.038 22.401 4.795C23.418 5.56 24.001 6.728 24.001 8V15.548C24.001 17.611 22.701 19.492 20.767 20.229C19.426 20.741 18.159 21 16.999 21ZM8.49998 17.5C10.134 17.5 11.597 17.899 13.013 18.285C14.361 18.653 15.633 19 16.999 19C17.913 19 18.941 18.785 20.055 18.36C21.238 17.91 22.001 16.806 22.001 15.548V8C22.001 7.363 21.708 6.777 21.198 6.394C20.699 6.019 20.072 5.901 19.473 6.073C18.422 6.376 17.271 6.5 15.499 6.5C13.865 6.5 12.402 6.101 10.986 5.715C9.63798 5.347 8.36598 5 6.99998 5C6.08498 5 5.05798 5.215 3.94398 5.64C2.76098 6.09 1.99798 7.194 1.99798 8.452V16C1.99798 16.637 2.29098 17.223 2.80098 17.606C3.29998 17.981 3.92698 18.099 4.52498 17.926C5.57598 17.623 6.72798 17.499 8.49898 17.499L8.49998 17.5Z" fill="#764AEF"/>
</g>
<defs>
<clipPath id="clip0_457_8758">
<rect width="24" height="24" fill="white"/>
</clipPath>
</defs>
</svg>
