<svg width="48" height="48" viewBox="0 0 48 48" fill="none" xmlns="http://www.w3.org/2000/svg">
<circle cx="24" cy="24" r="24" fill="url(#paint0_linear_186_11962)"/>
<path d="M9.85605 21.05H11.6861V22.22C11.8761 21.86 12.1811 21.545 12.6011 21.275C13.0311 21.005 13.6061 20.87 14.3261 20.87C15.2961 20.87 16.0161 21.13 16.4861 21.65C16.9661 22.17 17.2061 22.92 17.2061 23.9V29H15.2261V24.35C15.2261 23.75 15.1011 23.3 14.8511 23C14.6111 22.7 14.1961 22.55 13.6061 22.55C13.2861 22.55 13.0161 22.6 12.7961 22.7C12.5761 22.8 12.3911 22.935 12.2411 23.105C12.1011 23.265 11.9961 23.455 11.9261 23.675C11.8661 23.885 11.8361 24.11 11.8361 24.35V29H9.85605V21.05ZM22.5381 29.18C21.9981 29.18 21.4831 29.1 20.9931 28.94C20.5131 28.77 20.0931 28.52 19.7331 28.19C19.3731 27.85 19.0881 27.425 18.8781 26.915C18.6681 26.395 18.5631 25.79 18.5631 25.1V24.8C18.5631 24.14 18.6631 23.565 18.8631 23.075C19.0631 22.585 19.3381 22.18 19.6881 21.86C20.0381 21.53 20.4431 21.285 20.9031 21.125C21.3631 20.955 21.8581 20.87 22.3881 20.87C23.6381 20.87 24.5881 21.2 25.2381 21.86C25.8881 22.52 26.2131 23.475 26.2131 24.725V25.565H20.5881C20.5981 25.915 20.6581 26.22 20.7681 26.48C20.8781 26.73 21.0231 26.935 21.2031 27.095C21.3831 27.255 21.5881 27.375 21.8181 27.455C22.0581 27.525 22.2981 27.56 22.5381 27.56C23.0481 27.56 23.4331 27.485 23.6931 27.335C23.9531 27.185 24.1381 26.965 24.2481 26.675H26.0631C25.9031 27.505 25.5081 28.13 24.8781 28.55C24.2481 28.97 23.4681 29.18 22.5381 29.18ZM22.4631 22.49C22.2331 22.49 22.0031 22.52 21.7731 22.58C21.5531 22.64 21.3581 22.735 21.1881 22.865C21.0181 22.995 20.8781 23.17 20.7681 23.39C20.6581 23.61 20.5981 23.875 20.5881 24.185H24.2931C24.2831 23.855 24.2281 23.58 24.1281 23.36C24.0381 23.14 23.9081 22.965 23.7381 22.835C23.5781 22.705 23.3881 22.615 23.1681 22.565C22.9481 22.515 22.7131 22.49 22.4631 22.49ZM26.8928 21.05H29.0228L30.3128 26.3L31.9178 21.05H33.7478L35.4278 26.3L36.7928 21.05H38.7428L36.5228 29H34.5428L32.7878 23.45L31.0928 29H29.1128L26.8928 21.05Z" fill="white"/>
<defs>
<linearGradient id="paint0_linear_186_11962" x1="0" y1="0" x2="48" y2="48" gradientUnits="userSpaceOnUse">
<stop stop-color="#8EE650"/>
<stop offset="1" stop-color="#40C560"/>
</linearGradient>
</defs>
</svg>
