<svg width="18" height="18" viewBox="0 0 18 18" fill="none" xmlns="http://www.w3.org/2000/svg">
<path d="M11.2781 9.42485C10.6628 8.84211 9.84749 8.51733 9 8.51733C8.1525 8.51733 7.33723 8.84211 6.72187 9.42485L3.97406 12.0236C2.39906 13.4552 3.53531 16.1917 5.66156 16.0849C6.81468 16.0539 7.75125 15.4633 8.99718 15.4858C10.2881 15.4633 11.2472 15.9836 12.4059 16.0849C14.4956 16.1327 15.5756 13.427 14.0231 12.0236L11.2781 9.42485Z" fill="#FF7246"/>
<path d="M16.0087 5.60549C14.9344 5.39456 14.1131 6.58987 13.8994 7.61924C13.2581 10.8058 16.3462 11.4133 17.069 8.32237C17.3644 6.99768 16.8975 5.80237 16.0087 5.60549Z" fill="#FF7246"/>
<path d="M11.4553 7.32663C12.5241 7.32663 13.3931 6.11163 13.3931 4.62101C13.2863 1.03226 9.62439 1.03226 9.52032 4.62101C9.52032 6.11163 10.3894 7.32663 11.4553 7.32663Z" fill="#FF7246"/>
<path d="M4.10064 7.61924C3.8897 6.58987 3.06564 5.39456 1.99126 5.60549C1.46627e-05 6.10893 0.843765 10.353 2.79001 10.3642C3.89251 10.3277 4.40158 9.04799 4.10064 7.61924Z" fill="#FF7246"/>
<path d="M6.54469 7.32663C7.61062 7.32663 8.47969 6.11163 8.47969 4.62101C8.37562 1.03226 4.71375 1.03226 4.60687 4.62101C4.60687 6.11163 5.47594 7.32663 6.54469 7.32663Z" fill="#FF7246"/>
</svg>
