<svg width="32" height="32" viewBox="0 0 32 32" fill="none" xmlns="http://www.w3.org/2000/svg">
<path d="M28 15.3333V10C28 8.89543 27.1046 8 26 8H6C4.89543 8 4 8.89543 4 10V23.3333C4 24.4379 4.89543 25.3333 6 25.3333H17.3333" stroke="#764AEF" stroke-width="2" stroke-linecap="round" stroke-linejoin="round"/>
<path d="M4 13.333H27.3333" stroke="#764AEF" stroke-width="2" stroke-linecap="round" stroke-linejoin="round"/>
<path d="M20.6863 19.3533C19.7712 20.2683 19.7712 21.7519 20.6863 22.667L24 25.9808L27.3137 22.6671C28.2288 21.752 28.2288 20.2684 27.3137 19.3534C26.3987 18.4383 24.9151 18.4383 24.0001 19.3533C23.085 18.4383 21.6013 18.4382 20.6863 19.3533Z" stroke="#764AEF" stroke-width="2" stroke-linecap="round" stroke-linejoin="round"/>
<path d="M9.3335 20H12.0002" stroke="#764AEF" stroke-width="2" stroke-linecap="round" stroke-linejoin="round"/>
</svg>
