<svg width="44" height="44" viewBox="0 0 44 44" fill="none" xmlns="http://www.w3.org/2000/svg">
<rect width="44" height="44" rx="22" transform="matrix(-1 0 0 1 44 0)" fill="#F2F5F7"/>
<path d="M25.4731 22.8482C25.4307 22.8917 25.2707 23.0777 25.1217 23.2307C24.2478 24.193 21.9682 25.768 20.7751 26.2487C20.5939 26.326 20.1358 26.4895 19.891 26.5C19.6565 26.5 19.4329 26.446 19.2196 26.3365C18.9536 26.1835 18.7403 25.9428 18.6234 25.6585C18.5481 25.4613 18.4312 24.871 18.4312 24.8605C18.3143 24.2147 18.25 23.1655 18.25 22.006C18.25 20.9012 18.3143 19.8948 18.41 19.2393C18.421 19.2288 18.5379 18.4952 18.6657 18.244C18.9003 17.785 19.3584 17.5 19.8486 17.5L19.891 17.5C20.2103 17.5112 20.8818 17.7963 20.8818 17.8068C22.0106 18.2882 24.2376 19.786 25.1326 20.7812C25.1326 20.7812 25.3847 21.037 25.4943 21.1967C25.6652 21.4262 25.75 21.7105 25.75 21.9947C25.75 22.312 25.6543 22.6075 25.4731 22.8482Z" fill="#99A3AA"/>
</svg>
