<svg width="44" height="44" viewBox="0 0 44 44" fill="none" xmlns="http://www.w3.org/2000/svg">
<rect width="44" height="44" rx="22" fill="#F2F5F7"/>
<path d="M18.5269 22.8482C18.5693 22.8917 18.7293 23.0777 18.8783 23.2307C19.7522 24.193 22.0318 25.768 23.2249 26.2487C23.4061 26.326 23.8642 26.4895 24.109 26.5C24.3435 26.5 24.5671 26.446 24.7804 26.3365C25.0464 26.1835 25.2597 25.9428 25.3766 25.6585C25.4519 25.4613 25.5688 24.871 25.5688 24.8605C25.6857 24.2147 25.75 23.1655 25.75 22.006C25.75 20.9012 25.6857 19.8948 25.59 19.2393C25.579 19.2288 25.4621 18.4952 25.3343 18.244C25.0997 17.785 24.6416 17.5 24.1514 17.5L24.109 17.5C23.7897 17.5112 23.1182 17.7963 23.1182 17.8068C21.9894 18.2882 19.7624 19.786 18.8674 20.7812C18.8674 20.7812 18.6153 21.037 18.5057 21.1967C18.3348 21.4262 18.25 21.7105 18.25 21.9947C18.25 22.312 18.3457 22.6075 18.5269 22.8482Z" fill="#99A3AA"/>
</svg>
