<svg width="20" height="20" viewBox="0 0 20 20" fill="none" xmlns="http://www.w3.org/2000/svg">
<rect width="20" height="20" fill="white"/>
<path d="M12.4977 6.24586L11.1705 3.81255C10.7893 3.11364 10.5987 2.76419 10.3463 2.64887C10.1264 2.54837 9.87362 2.54836 9.65368 2.64885C9.40129 2.76416 9.21067 3.1136 8.82943 3.81248L7.50202 6.24591C7.39888 6.43499 7.34731 6.52953 7.27673 6.6057C7.21418 6.67321 7.14087 6.72989 7.05979 6.77344C6.96831 6.82258 6.86384 6.84869 6.65489 6.90093L3.80225 7.61409C3.09693 7.79042 2.74427 7.87859 2.57153 8.07952C2.42074 8.25493 2.34964 8.48511 2.37524 8.715C2.40457 8.97836 2.64607 9.25005 3.12908 9.79343L4.99387 11.8913C5.13265 12.0475 5.20204 12.1255 5.24915 12.2148C5.29091 12.2939 5.31965 12.3792 5.33428 12.4675C5.35077 12.5671 5.34276 12.6712 5.32672 12.8795L5.09562 15.8815C5.0343 16.678 5.00364 17.0762 5.15294 17.3107C5.28304 17.5149 5.49558 17.6525 5.73523 17.6876C6.01026 17.7278 6.36105 17.5368 7.06264 17.1548L9.36166 15.9029C9.59479 15.776 9.71136 15.7125 9.83456 15.6876C9.94361 15.6656 10.056 15.6657 10.165 15.6878C10.2882 15.7127 10.4047 15.7763 10.6378 15.9034L12.9362 17.1571C13.638 17.5399 13.9889 17.7313 14.264 17.6912C14.5037 17.6562 14.7164 17.5187 14.8466 17.3143C14.996 17.0799 14.9654 16.6813 14.904 15.8843L14.6729 12.8794C14.6569 12.6712 14.6489 12.567 14.6654 12.4675C14.68 12.3792 14.7087 12.2939 14.7505 12.2148C14.7976 12.1255 14.867 12.0475 15.0058 11.8914L16.8706 9.79343C17.3536 9.25005 17.5951 8.97836 17.6244 8.715C17.65 8.48511 17.5789 8.25493 17.4281 8.07952C17.2554 7.87859 16.9027 7.79042 16.1974 7.61409L13.3448 6.90094C13.1359 6.8487 13.0314 6.82258 12.9399 6.77344C12.8588 6.72988 12.7855 6.6732 12.7229 6.60568C12.6524 6.5295 12.6008 6.43495 12.4977 6.24586Z" fill="#D3D3D3"/>
</svg>
