<svg width="26" height="26" viewBox="0 0 26 26" fill="none" xmlns="http://www.w3.org/2000/svg">
<path d="M9.74994 22.75H7.10829C5.69872 22.75 4.66444 21.4253 5.00631 20.0578L5.8845 16.5451C6.2462 15.0983 7.54614 14.0833 9.03746 14.0833H16.9624C18.4537 14.0833 19.7537 15.0983 20.1154 16.5451L20.9936 20.0578C21.3354 21.4253 20.3012 22.75 18.8916 22.75H16.2499M13 10.8333C11.5042 10.8333 10.2916 9.62077 10.2916 8.125V5.95833C10.2916 4.46256 11.5042 3.25 13 3.25C14.4957 3.25 15.7083 4.46256 15.7083 5.95833V8.125C15.7083 9.62077 14.4957 10.8333 13 10.8333Z" stroke="#1C1F22" stroke-width="2" stroke-linecap="round" stroke-linejoin="round"/>
</svg>
